<svg width="291" height="327" viewBox="0 0 291 327" fill="none" xmlns="http://www.w3.org/2000/svg">
<path d="M243.444 74.8185C243.444 74.9008 242.928 74.8185 242.442 74.4445C241.956 74.0705 241.694 73.6965 241.769 73.6217C241.843 73.5469 242.187 73.8536 242.636 74.1752C243.085 74.4969 243.482 74.7288 243.444 74.8185Z" fill="white"/>
<path d="M118.79 0.92334H7.56976V116.863H118.79V0.92334Z" fill="#E0E0E0"/>
<path d="M111.257 0.922852H0.0371094V116.863H111.257V0.922852Z" fill="#FAFAFA"/>
<path d="M111.295 116.893H0V0.885742H111.295V116.893ZM0.0897592 116.826H111.22V0.953062H0.0897592V116.826Z" fill="#E0E0E0"/>
<path d="M96.305 16.5039H14.9899V101.267H96.305V16.5039Z" fill="#FAFAFA"/>
<path fill-rule="evenodd" clip-rule="evenodd" d="M82.7564 60.3899L74.0487 51.1598V32.6073C74.0487 32.181 73.9171 31.7722 73.6827 31.4708C73.4483 31.1693 73.1303 31 72.7988 31H66.966C66.6345 31 66.3165 31.1693 66.0821 31.4708C65.8477 31.7722 65.7161 32.181 65.7161 32.6073V42.333L56.3907 32.4667C55.4958 31.5197 54.3729 31.0019 53.2139 31.0019C52.0549 31.0019 50.932 31.5197 50.0371 32.4667L23.6714 60.3899C23.5448 60.5244 23.4401 60.6897 23.3632 60.8763C23.2863 61.0628 23.2388 61.2671 23.2233 61.4773C23.2079 61.6875 23.2247 61.8996 23.273 62.1014C23.3213 62.3032 23.4 62.4908 23.5047 62.6535L26.1608 66.8058C26.2652 66.969 26.3936 67.1042 26.5387 67.2035C26.6837 67.3029 26.8426 67.3645 27.0062 67.3847C27.1698 67.405 27.3349 67.3836 27.4921 67.3217C27.6492 67.2598 27.7954 67.1587 27.9221 67.0241L52.4223 41.0739C52.648 40.8399 52.9292 40.7123 53.2191 40.7123C53.509 40.7123 53.7902 40.8399 54.0159 41.0739L78.5172 67.0241C78.6437 67.1587 78.7896 67.26 78.9465 67.3221C79.1034 67.3841 79.2684 67.4059 79.4318 67.386C79.5953 67.3661 79.7541 67.3049 79.8992 67.2061C80.0443 67.1072 80.1728 66.9726 80.2774 66.8098L82.9335 62.6575C83.0381 62.4939 83.1165 62.3053 83.1642 62.1026C83.2119 61.8999 83.228 61.6871 83.2115 61.4764C83.1951 61.2656 83.1464 61.0612 83.0683 60.8747C82.9902 60.6883 82.8842 60.5235 82.7564 60.3899ZM53.5326 46.9171L34.3289 67.2564V89.2084C34.3289 89.7768 34.5045 90.3219 34.817 90.7238C35.1295 91.1257 35.5534 91.3515 35.9954 91.3515L47.6674 91.3127C47.7156 91.3124 47.7634 91.3094 47.811 91.3038H60.8646C60.9067 91.3079 60.949 91.31 60.9914 91.31L72.6593 91.3515C73.1013 91.3515 73.5252 91.1257 73.8377 90.7238C74.1502 90.3219 74.3258 89.7768 74.3258 89.2084V67.2417L55.1262 46.9171C54.9005 46.6831 54.6193 46.5556 54.3294 46.5556C54.0395 46.5556 53.7583 46.6831 53.5326 46.9171ZM55.1171 67.3406C57.057 65.1586 60.2002 64.8055 62.3137 66.7689C64.7358 69.0223 64.863 73.0668 62.6917 75.5095L55.2289 83.9096C54.7468 84.452 53.9639 84.452 53.4818 83.9096L46.019 75.5095C43.8516 73.0668 43.9788 69.0223 46.4009 66.7689C48.5144 64.8055 51.6614 65.1586 53.5975 67.3406L54.3573 68.1941L55.1171 67.3406Z" fill="#FF725E"/>
<path d="M14.9899 101.836C14.4116 102.687 13.7392 103.469 12.9853 104.169C11.6838 105.538 9.85864 107.393 7.8166 109.405C5.77456 111.418 3.8896 113.213 2.49832 114.484C1.10704 115.756 0.254317 116.519 0.149597 116.444C0.723571 115.594 1.39373 114.814 2.14676 114.118C3.44828 112.749 5.2734 110.894 7.3304 108.882C9.3874 106.87 11.2649 105.06 12.6487 103.781C14.0325 102.501 14.9226 101.761 14.9899 101.836Z" fill="#E0E0E0"/>
<path d="M96.305 101.656C97.1569 102.236 97.9399 102.911 98.6387 103.668C100.008 104.962 101.863 106.787 103.875 108.837C105.887 110.886 107.682 112.756 108.961 114.147C109.704 114.849 110.359 115.638 110.913 116.496C110.065 115.923 109.287 115.253 108.595 114.499C107.218 113.205 105.363 111.372 103.359 109.323C101.354 107.273 99.5363 105.381 98.2647 103.997C96.9931 102.613 96.2302 101.693 96.305 101.656Z" fill="#E0E0E0"/>
<path d="M96.0806 16.7359C96.6533 15.883 97.3236 15.0998 98.0777 14.4021C99.3718 13.0258 101.197 11.1708 103.246 9.16612C105.296 7.16148 107.173 5.3588 108.557 4.07972C109.259 3.33696 110.047 2.68148 110.906 2.12744C110.981 2.19476 110.21 3.0774 108.909 4.44624C107.607 5.81508 105.782 7.6776 103.733 9.68224C101.683 11.6869 99.7981 13.5045 98.4068 14.7761C97.0156 16.0477 96.1479 16.8107 96.0806 16.7359Z" fill="#E0E0E0"/>
<path d="M14.7655 16.9379C13.9101 16.3656 13.1266 15.6925 12.4318 14.9333C11.0629 13.6318 9.20788 11.8141 7.19576 9.76461C5.18364 7.71509 3.38095 5.83761 2.10935 4.45381C1.36789 3.74893 0.710287 2.96081 0.149597 2.10509C0.224397 2.03029 1.10704 2.80073 2.47588 4.09477C3.84472 5.38881 5.70724 7.22889 7.71188 9.27841C9.71652 11.3279 11.5267 13.2129 12.8058 14.6042C13.5484 15.3024 14.2062 16.0857 14.7655 16.9379Z" fill="#E0E0E0"/>
<path d="M96.0806 101.275C96.0806 101.275 96.0806 101.126 96.0806 100.864C96.0806 100.602 96.0806 100.183 96.0806 99.6819C96.0806 98.6098 96.0806 97.0839 96.0806 95.1041C96.0806 91.0874 96.0358 85.2455 95.9984 77.8253C95.9984 62.9775 95.9011 41.8316 95.8413 16.4893L96.1479 16.8035L15.0647 16.8484L15.4238 16.4893C15.4238 47.6061 15.3864 76.7108 15.3714 101.26L15.0647 100.946L73.7828 101.111L90.2762 101.185L94.637 101.223H95.7665C95.896 101.213 96.0259 101.213 96.1554 101.223C96.0384 101.23 95.921 101.23 95.8039 101.223H94.7043L90.4033 101.26L73.9473 101.342L15.0348 101.5H14.7281V101.193C14.7281 76.6435 14.6907 47.5388 14.6758 16.422V16.063H15.0423L96.1255 16.1079H96.4472V16.422C96.3873 41.854 96.3275 63.0523 96.2901 77.945C96.2901 85.3353 96.2302 91.1547 96.2078 95.149C96.2078 97.1088 96.2078 98.6197 96.1704 99.637C96.1704 100.123 96.1704 100.505 96.1704 100.781C96.159 100.949 96.1289 101.114 96.0806 101.275Z" fill="#E0E0E0"/>
<path d="M36.0312 257.764C35.7095 257.839 38.1181 269.972 38.1181 269.972H44.304L47.0342 258.243C43.4882 257.032 39.669 256.866 36.0312 257.764Z" fill="#E0E0E0"/>
<path d="M32.3061 326.057C32.3061 326.057 23.2104 300.625 24.482 293.676C25.7536 286.727 28.4913 285.306 30.668 283.121C32.8446 280.937 34.6773 279.12 35.2233 276.935C35.7693 274.751 35.2233 266.015 35.2233 266.015C35.2233 266.015 33.5852 263.471 34.1312 262.559C34.6773 261.646 48.1413 262.559 48.1413 262.559C48.0654 263.671 47.6879 264.742 47.0492 265.656C47.0492 265.656 46.6826 275.843 47.2287 276.935C47.7747 278.028 56.1448 287.31 57.4165 292.038C58.688 296.765 52.3899 326.057 52.3899 326.057H32.3061Z" fill="#F5F5F5"/>
<path d="M32.306 326.056C32.4256 326.05 32.5455 326.05 32.6651 326.056H33.6898H37.6393L52.3898 325.989L52.2702 326.086C53.0182 322.346 53.8858 318.187 54.7386 313.565C55.5913 308.942 56.4739 303.908 57.0948 298.507C57.2369 297.153 57.3715 295.777 57.4014 294.386C57.4344 293.695 57.3917 293.003 57.2743 292.321C57.0931 291.642 56.8424 290.982 56.5263 290.354C55.1341 287.764 53.5093 285.305 51.6718 283.009C50.7517 281.812 49.8018 280.623 48.8368 279.418C48.3506 278.82 47.8644 278.222 47.3932 277.593C47.2691 277.43 47.1542 277.26 47.0491 277.085C46.9714 276.882 46.9186 276.671 46.892 276.456C46.8322 276.06 46.8098 275.671 46.7873 275.274C46.6527 272.125 46.7424 268.931 46.8397 265.7V265.648V265.595C46.9942 265.355 47.1341 265.105 47.2586 264.847C47.6161 264.148 47.8345 263.386 47.9018 262.603L48.0814 262.798C45.0071 262.603 41.9777 262.454 39.0081 262.401C37.5498 262.349 36.0895 262.406 34.6398 262.573C34.5073 262.598 34.3789 262.64 34.2583 262.701C34.1886 262.823 34.1573 262.964 34.1686 263.104C34.1913 263.443 34.2644 263.775 34.3855 264.092C34.6418 264.744 34.9599 265.37 35.3354 265.962V266.007V266.052C35.4701 268.378 35.5598 270.667 35.5673 272.918C35.585 274.039 35.5426 275.16 35.4402 276.277C35.3025 277.392 34.8858 278.455 34.2284 279.366C33.6046 280.243 32.9118 281.068 32.1564 281.834C31.4084 282.582 30.6604 283.33 29.9124 284.041C29.1511 284.704 28.434 285.416 27.7657 286.173C27.1726 286.91 26.6703 287.716 26.2697 288.574C25.4716 290.28 24.92 292.091 24.6316 293.952C24.5382 294.84 24.5382 295.735 24.6316 296.622C24.6914 297.505 24.8111 298.365 24.9383 299.218C25.4768 302.591 26.2547 305.673 26.9803 308.463C28.4763 314.028 29.8825 318.412 30.8549 321.419C31.3411 322.915 31.7226 324.066 31.9844 324.867C32.1116 325.248 32.2088 325.54 32.2761 325.757C32.3434 325.974 32.3659 326.064 32.3659 326.064L32.2462 325.764C32.1714 325.555 32.0592 325.263 31.9246 324.889C31.6403 324.141 31.2364 322.959 30.7278 321.463C29.718 318.471 28.2743 314.088 26.7484 308.523C25.8919 305.474 25.1929 302.383 24.654 299.263C24.5268 298.41 24.3997 297.542 24.3324 296.645C24.2354 295.735 24.2354 294.817 24.3324 293.907C24.6135 292.012 25.1678 290.168 25.978 288.432C26.4174 287.527 26.9677 286.68 27.6161 285.911C28.2962 285.144 29.0231 284.419 29.7928 283.742C30.5408 283.054 31.2888 282.306 32.0368 281.55C32.7804 280.799 33.4585 279.986 34.0638 279.119C34.6918 278.256 35.0883 277.247 35.2158 276.187C35.3125 275.085 35.3524 273.979 35.3354 272.873C35.3354 270.629 35.2232 268.385 35.0886 266.029V266.119C34.6985 265.505 34.3703 264.853 34.1087 264.174C33.9644 263.819 33.881 263.442 33.8619 263.06C33.8466 262.835 33.9043 262.612 34.0264 262.424C34.1982 262.273 34.4125 262.179 34.6398 262.155C36.1136 261.975 37.5995 261.915 39.0829 261.975C42.0749 262.02 45.0669 262.169 48.1786 262.364H48.3731V262.543C48.3167 263.398 48.0823 264.231 47.6849 264.989C47.5514 265.247 47.4041 265.496 47.2436 265.737L47.281 265.64C47.1838 268.864 47.094 272.058 47.2286 275.177C47.2415 275.56 47.274 275.942 47.3259 276.322C47.3465 276.498 47.3866 276.671 47.4456 276.838C47.5401 276.994 47.6451 277.144 47.7597 277.287C48.216 277.907 48.7097 278.506 49.1884 279.104C50.1533 280.308 51.1033 281.498 52.0233 282.702C53.877 285.019 55.5122 287.503 56.9078 290.122C57.2252 290.776 57.4758 291.46 57.6558 292.164C57.7754 292.876 57.8181 293.598 57.7829 294.319C57.7829 295.732 57.6184 297.116 57.4688 298.47C56.833 303.893 55.9129 308.942 55.0602 313.55C54.2075 318.157 53.3323 322.361 52.5394 326.064V326.168H52.4347L37.6243 326.109H33.6973H32.6875L32.306 326.056Z" fill="#E0E0E0"/>
<path d="M50.6471 323.423C52.9546 314.91 54.4843 306.205 55.2174 297.415C55.2922 296.413 55.2922 295.253 54.5367 294.587C53.6092 293.78 52.188 294.213 51.0136 294.587C47.5614 295.679 43.8883 295.875 40.3396 295.156C36.8913 294.445 33.473 292.867 29.9948 293.436C29.5599 293.479 29.1378 293.607 28.7528 293.814C28.3677 294.021 28.0272 294.301 27.7508 294.64C27.1823 295.478 27.3169 296.585 27.4815 297.579C28.8429 306.129 31.6329 315.965 33.8993 323.423H50.6471Z" fill="#E0E0E0"/>
<path d="M52.9359 295.635C52.7498 295.912 52.5286 296.163 52.2777 296.383C51.6313 296.978 50.9384 297.521 50.2057 298.006C47.7867 299.666 45.0055 300.723 42.0946 301.089C39.1836 301.455 36.2274 301.118 33.473 300.108C32.6452 299.808 31.8424 299.443 31.0719 299.016C30.7792 298.874 30.5053 298.695 30.2566 298.485C30.294 298.418 31.4684 299.151 33.5628 299.846C36.2838 300.766 39.1775 301.057 42.0273 300.7C44.877 300.342 47.609 299.345 50.0187 297.782C51.9261 296.585 52.8836 295.583 52.9359 295.635Z" fill="white"/>
<path d="M247.557 289.188C250.79 286.864 254.083 284.508 257.827 283.147C261.571 281.786 265.899 281.52 269.444 283.346C272.412 284.873 274.549 287.727 275.777 290.834C277.293 294.692 277.548 298.931 276.508 302.943C275.943 305.107 274.821 307.344 272.764 308.22C270.706 309.097 268.336 308.34 266.291 307.424C259.581 304.409 253.768 299.704 249.423 293.768C249.86 293.419 250.39 293.207 250.947 293.157C251.505 293.107 252.064 293.223 252.556 293.489C253.528 294.038 254.412 294.729 255.178 295.541C257.774 297.893 260.905 299.574 264.299 300.44C266.809 301.104 270.188 300.805 271.031 298.355C271.582 296.756 270.706 295.036 269.856 293.582C268.887 291.903 267.778 290.104 265.959 289.433C264.592 288.935 263.085 289.174 261.651 289.433L245.997 292.122L246.966 291.836" fill="#455A64"/>
<path d="M208.477 78.058C198.154 75.1769 182.859 79.1866 177.017 88.1684C171.175 97.1502 173.751 110.48 173.293 121.181C172.835 131.883 173.293 142.756 170.697 153.159C169.064 159.797 165.937 166.436 160.188 170.12C153.616 174.302 143.765 174.714 140.651 181.857C138.056 187.832 142.085 195.134 139.463 201.108C138.308 203.764 135.965 205.755 134.956 208.444C133.562 212.175 135.088 216.516 137.83 219.404C140.572 222.292 144.323 223.985 148.06 225.379C159.446 229.549 171.549 231.411 183.662 230.855C192.471 230.444 201.924 228.359 207.7 221.701C212.234 216.47 213.728 209.3 214.551 202.449C219.609 160.076 220.525 113.494 208.477 78.1244" fill="#263238"/>
<path d="M150.915 206.645C151.001 206.599 150.53 205.802 150.058 204.216C149.442 201.972 149.31 199.623 149.673 197.325C150.223 193.918 151.495 190.668 153.404 187.792C155.522 184.526 158.589 181.459 161.954 178.439C165.32 175.418 168.673 172.623 171.374 169.709C173.811 167.159 175.84 164.248 177.389 161.079C178.424 158.933 179.067 156.62 179.287 154.248C179.334 153.605 179.334 152.959 179.287 152.316C179.287 151.871 179.234 151.652 179.201 151.652C179.002 151.599 179.533 155.503 176.864 160.84C175.274 163.907 173.241 166.723 170.83 169.198C168.175 172.046 164.809 174.801 161.417 177.828C158.024 180.855 154.931 183.995 152.787 187.381C150.847 190.354 149.591 193.721 149.109 197.239C148.79 199.611 149.017 202.024 149.773 204.295C149.984 204.907 150.251 205.498 150.569 206.061C150.656 206.271 150.772 206.468 150.915 206.645Z" fill="#455A64"/>
<path d="M176.878 282.536L173.426 325.918L277.138 326.43L248.945 286.785L176.878 282.536Z" fill="#263238"/>
<path d="M94.8861 178.192C95.1782 178.445 88.8119 212.414 85.5922 229.421C85.0545 232.267 85.3255 235.206 86.3746 237.905C87.4237 240.604 89.2088 242.955 91.527 244.69C93.9223 246.481 96.7852 247.539 99.7695 247.737C102.754 247.935 105.731 247.264 108.342 245.805L151.525 223.334L138.302 195.645L111.084 211.093L112.876 182.288L94.8861 178.192Z" fill="#FFBE9D"/>
<path d="M109.63 151.18C109.325 149.966 107.791 149.415 106.57 149.72C105.379 150.137 104.317 150.858 103.49 151.811L99.9977 153.929C99.3388 154.366 98.7962 154.957 98.4169 155.651C98.0375 156.345 97.8328 157.121 97.8203 157.912C97.803 159.49 98.0475 161.06 98.5439 162.559C98.909 163.886 99.4268 165.393 100.708 165.878C102.135 166.409 103.715 165.307 104.386 163.94C105.056 162.572 105.123 161.012 105.474 159.532C105.898 157.756 106.738 156.107 107.924 154.719C108.807 153.677 109.969 152.508 109.63 151.18Z" fill="#EB996E"/>
<path d="M80.62 152.548C80.512 152.21 80.489 151.85 80.5531 151.5C80.6173 151.151 80.7665 150.822 80.9876 150.544C81.2087 150.266 81.495 150.046 81.821 149.905C82.1471 149.764 82.5029 149.705 82.8572 149.734C89.947 150.318 106.789 152.675 116.78 155.549C130.946 159.625 140.273 162.26 140.273 162.26L170.359 161.597C170.359 161.597 166.747 171.966 155.283 172.019C146.606 172.059 137.505 166.483 137.505 166.483C137.505 166.483 98.9488 153.352 82.7576 154.062C82.2847 154.083 81.8183 153.946 81.4314 153.674C81.0446 153.401 80.7592 153.007 80.62 152.555V152.548Z" fill="#455A64"/>
<path d="M164.736 161.683C165.108 162.739 163.88 163.675 162.784 163.874C161.689 164.073 160.434 164.02 159.644 164.803C159.364 165.14 159.16 165.533 159.045 165.956C158.931 166.378 158.908 166.821 158.98 167.253C159.137 168.113 159.241 168.982 159.292 169.855C159.309 170.448 159.103 171.026 158.715 171.475C157.925 172.278 156.471 172.006 155.708 171.183C155.008 170.288 154.628 169.185 154.625 168.049C154.616 167.245 154.497 166.446 154.274 165.673C154.156 165.286 153.937 164.939 153.639 164.665C153.341 164.392 152.976 164.204 152.581 164.119C151.632 164 150.795 164.717 149.886 165.036C149.409 165.17 148.909 165.201 148.419 165.124C147.93 165.047 147.463 164.865 147.05 164.591C146.638 164.316 146.29 163.956 146.03 163.534C145.77 163.113 145.604 162.64 145.544 162.148L164.736 161.683Z" fill="#FF725E"/>
<path d="M91.4605 150.896C90.9887 151.158 90.5009 151.391 90.0001 151.593C87.5718 152.579 84.9429 152.97 82.3327 152.734C81.7947 152.69 81.2602 152.61 80.7328 152.495C80.7328 152.495 80.8855 152.495 81.1576 152.555C81.4298 152.615 81.8215 152.641 82.3327 152.681C83.6302 152.786 84.9354 152.741 86.2228 152.548C87.5085 152.355 88.7687 152.018 89.9802 151.546C90.4449 151.36 90.8166 151.201 91.0689 151.075L91.4605 150.896Z" fill="#263238"/>
<path d="M104.658 152.801H104.532L104.173 152.761C103.861 152.721 103.41 152.681 102.846 152.648C101.386 152.561 99.9206 152.637 98.4775 152.874C97.0356 153.12 95.6245 153.52 94.2687 154.069C93.7509 154.288 93.3327 154.474 93.0538 154.613L92.7286 154.766L92.6091 154.812C92.6091 154.812 92.6423 154.812 92.7153 154.739L93.0273 154.56C93.3061 154.407 93.6911 154.208 94.2355 153.983C95.5878 153.4 97.0054 152.984 98.4575 152.741C99.9096 152.502 101.385 152.438 102.852 152.549C103.416 152.595 103.868 152.655 104.18 152.708L104.538 152.774L104.658 152.801Z" fill="#263238"/>
<path d="M114.523 157.8L113.135 157.388L111.515 156.897C111.164 156.818 110.845 156.635 110.599 156.373C110.538 156.294 110.497 156.201 110.479 156.103C110.462 156.004 110.469 155.903 110.5 155.808C110.536 155.709 110.595 155.62 110.672 155.549C110.75 155.477 110.843 155.425 110.945 155.397C111.377 155.265 111.839 155.265 112.272 155.397C112.717 155.483 113.182 155.583 113.653 155.715C114.657 155.998 115.633 156.374 116.567 156.837C117.059 157.083 117.556 157.355 118.041 157.66C118.299 157.798 118.525 157.988 118.705 158.218C118.751 158.283 118.78 158.358 118.789 158.437C118.799 158.516 118.788 158.596 118.758 158.669C118.688 158.809 118.57 158.92 118.426 158.981C117.262 159.43 116.002 159.57 114.768 159.386C112.212 159.061 110.055 157.833 108.13 156.824C106.453 155.831 104.632 155.103 102.733 154.666C101.446 154.395 100.112 154.446 98.8493 154.813C98.508 154.92 98.177 155.058 97.8601 155.224C97.6477 155.344 97.5349 155.397 97.5349 155.397L97.807 155.204C98.1206 155.032 98.4495 154.89 98.7895 154.779C100.059 154.4 101.403 154.343 102.7 154.613C104.605 155.044 106.432 155.767 108.117 156.758C110.048 157.767 112.206 158.988 114.755 159.313C115.975 159.493 117.221 159.356 118.373 158.915C118.506 158.864 118.615 158.764 118.678 158.636C118.702 158.572 118.71 158.503 118.702 158.435C118.694 158.367 118.67 158.302 118.632 158.245C118.45 158.024 118.224 157.843 117.968 157.714C117.494 157.413 117.005 157.138 116.501 156.89C115.569 156.427 114.595 156.051 113.593 155.768C113.129 155.636 112.664 155.529 112.219 155.437C111.805 155.317 111.365 155.317 110.951 155.437C110.857 155.466 110.771 155.515 110.699 155.582C110.626 155.649 110.57 155.73 110.533 155.822C110.503 155.909 110.495 156.003 110.51 156.095C110.526 156.186 110.563 156.272 110.619 156.346C110.86 156.604 111.172 156.785 111.515 156.864L113.135 157.362L114.523 157.8Z" fill="#263238"/>
<path d="M121.52 157.196C121.639 157.401 121.72 157.626 121.759 157.86C121.867 158.402 121.799 158.965 121.566 159.466C121.32 159.961 120.925 160.368 120.438 160.628C120.231 160.739 120.006 160.811 119.774 160.84C119.984 160.771 120.188 160.684 120.384 160.581C120.865 160.327 121.252 159.926 121.489 159.436C121.727 158.947 121.803 158.395 121.705 157.86C121.661 157.634 121.599 157.412 121.52 157.196Z" fill="#263238"/>
<path d="M133.734 160.389C133.734 160.389 133.07 160.389 132.035 160.322C130.999 160.256 129.539 160.103 127.932 160.083C126.573 160.034 125.219 160.26 123.949 160.747C123.72 160.83 123.498 160.932 123.285 161.052C123.125 161.129 122.974 161.222 122.834 161.331L122.456 161.584L122.814 161.311C122.953 161.197 123.104 161.099 123.265 161.019C123.477 160.895 123.699 160.788 123.929 160.701C125.214 160.201 126.589 159.975 127.965 160.037C129.579 160.037 131.019 160.229 132.068 160.302C132.592 160.342 133.017 160.375 133.309 160.389H133.734Z" fill="#263238"/>
<path d="M146.473 170.406C146.473 170.406 146.234 170.2 145.81 169.815C145.597 169.622 145.332 169.39 145.013 169.151C144.694 168.912 144.349 168.593 143.924 168.294C142.965 167.568 141.96 166.903 140.917 166.303C138.363 164.845 135.6 163.788 132.725 163.17C131.554 162.911 130.368 162.729 129.174 162.625C128.662 162.559 128.198 162.552 127.793 162.532C127.388 162.512 127.036 162.532 126.751 162.532H125.861H126.751C127.036 162.532 127.414 162.532 127.793 162.532C128.171 162.532 128.662 162.532 129.174 162.612C130.372 162.713 131.563 162.891 132.738 163.143C134.176 163.454 135.591 163.862 136.974 164.365C138.344 164.902 139.674 165.535 140.957 166.256C142.001 166.855 143.005 167.52 143.964 168.248C144.382 168.54 144.728 168.852 145.046 169.111C145.365 169.37 145.624 169.596 145.829 169.775C146.268 170.186 146.473 170.406 146.473 170.406Z" fill="#263238"/>
<path d="M155.177 170.632C154.966 170.746 154.743 170.838 154.513 170.904C153.896 171.091 153.251 171.17 152.607 171.136C151.652 171.076 150.716 170.833 149.852 170.419C148.804 169.9 147.838 169.229 146.985 168.428C146.062 167.591 145.259 166.728 144.515 165.958C143.865 165.256 143.175 164.592 142.451 163.967C141.962 163.552 141.443 163.174 140.897 162.838C140.705 162.725 140.552 162.632 140.446 162.579L140.293 162.506C141.085 162.889 141.824 163.373 142.49 163.947C143.216 164.564 143.91 165.217 144.568 165.905C145.318 166.675 146.122 167.538 147.038 168.368C147.886 169.166 148.845 169.837 149.886 170.36C150.742 170.773 151.671 171.017 152.621 171.077C153.259 171.119 153.899 171.05 154.513 170.871C154.681 170.824 154.845 170.764 155.004 170.692L155.177 170.632Z" fill="#263238"/>
<path d="M166.575 167.439H166.349C166.196 167.439 165.984 167.439 165.718 167.439C165.025 167.44 164.333 167.511 163.654 167.651C162.968 167.799 162.3 168.022 161.662 168.315C161.423 168.421 161.224 168.521 161.098 168.594C161.031 168.634 160.96 168.667 160.886 168.693C161.127 168.533 161.38 168.39 161.642 168.268C162.903 167.659 164.292 167.361 165.692 167.399C165.987 167.392 166.282 167.406 166.575 167.439Z" fill="#263238"/>
<path d="M83.7334 170.094L83.4148 163.887C83.3795 163.218 83.5637 162.556 83.9392 162.002L83.979 161.942C85.0484 160.355 86.4422 159.014 88.0683 158.005L101.445 149.714C101.642 149.591 101.866 149.518 102.098 149.502C102.329 149.485 102.562 149.525 102.774 149.619C102.987 149.712 103.173 149.856 103.318 150.038C103.462 150.22 103.56 150.435 103.602 150.663C103.768 151.758 103.284 154.255 102.314 155.25C100.595 156.815 98.7121 158.191 96.6983 159.353L110.115 156.751C110.427 157.607 110.422 158.548 110.099 159.401C109.776 160.254 109.157 160.962 108.355 161.397L113.872 160.229C113.872 160.229 115.678 162.798 113.208 164.491C110.739 166.184 106.351 167.651 106.351 167.651C106.351 167.651 113.195 170.539 113.036 172.842C112.876 175.146 112.783 182.528 112.783 182.528L94.3948 181.2L83.7334 170.094Z" fill="#FFBE9D"/>
<path d="M97.1829 158.948L97.0568 159.021L96.6718 159.214C96.3398 159.386 95.8552 159.625 95.271 159.937C94.6869 160.249 94.023 160.674 93.2795 161.159C92.536 161.643 91.7062 162.141 90.9162 162.752C90.5296 163.048 90.2199 163.433 90.0134 163.874C89.8362 164.293 89.7545 164.747 89.7744 165.202C89.8282 165.973 89.9753 166.736 90.2125 167.472C90.365 167.979 90.4694 168.499 90.5245 169.025C90.5474 169.217 90.5474 169.411 90.5245 169.603C90.5245 169.603 90.5245 169.397 90.4781 169.025C90.4075 168.507 90.292 167.997 90.1329 167.499C89.8772 166.757 89.7187 165.984 89.6615 165.202C89.6376 164.732 89.7193 164.262 89.9005 163.828C90.117 163.368 90.4375 162.966 90.8366 162.652C91.2301 162.349 91.6401 162.068 92.0647 161.809L93.2264 161.059C93.9633 160.581 94.6404 160.163 95.2179 159.858C95.7955 159.552 96.3 159.327 96.6452 159.194L97.0369 159.021L97.1829 158.948Z" fill="#EB996E"/>
<path d="M98.431 172.882C98.431 172.882 98.3712 172.815 98.265 172.676L97.807 172.085L97.0767 171.156C96.7441 170.748 96.4611 170.302 96.2337 169.828C95.9825 169.177 95.9286 168.467 96.0785 167.786C96.2284 167.105 96.5756 166.483 97.0767 165.998C97.6895 165.463 98.3873 165.034 99.1413 164.73C99.8981 164.371 100.695 164.026 101.518 163.688C104.34 162.559 107.24 161.634 110.194 160.919C111.323 160.634 112.246 160.435 112.883 160.302L113.613 160.156L113.872 160.109C113.789 160.139 113.705 160.163 113.62 160.182L112.89 160.355C112.259 160.508 111.343 160.72 110.234 161.019C107.3 161.764 104.417 162.7 101.604 163.82C100.788 164.159 99.991 164.484 99.2342 164.856C98.4918 165.156 97.8033 165.575 97.1962 166.097C96.7105 166.564 96.3724 167.163 96.2237 167.821C96.0751 168.478 96.1224 169.164 96.3598 169.795C96.5783 170.267 96.85 170.712 97.1697 171.123C97.4352 171.474 97.6742 171.786 97.8866 172.065C98.0991 172.344 98.2252 172.53 98.3248 172.676C98.4243 172.822 98.431 172.882 98.431 172.882Z" fill="#EB996E"/>
<path d="M112.664 164.637C112.568 164.708 112.466 164.77 112.359 164.823L111.502 165.274C110.779 165.653 109.77 166.157 108.621 166.655C107.642 167.08 106.64 167.45 105.62 167.764C105.229 167.883 104.91 167.97 104.684 168.023C104.572 168.059 104.456 168.086 104.339 168.102C104.444 168.046 104.555 168.003 104.671 167.976L105.587 167.671C106.364 167.405 107.419 167.007 108.568 166.529C109.716 166.051 110.725 165.54 111.462 165.201L112.332 164.79C112.437 164.728 112.548 164.677 112.664 164.637Z" fill="#EB996E"/>
<path d="M152.129 135.029C152.129 135.029 151.904 135.335 151.605 135.952C151.194 136.831 150.985 137.79 150.994 138.76C151.002 140.2 151.512 141.592 152.435 142.697C153.007 143.323 153.612 143.919 154.247 144.482C154.943 145.095 155.494 145.854 155.86 146.706C156.164 147.593 156.136 148.56 155.781 149.428C155.452 150.224 155.004 150.965 154.453 151.625C153.948 152.289 153.411 152.827 152.926 153.358C152.475 153.852 152.062 154.38 151.691 154.938C151.276 155.455 150.979 156.058 150.821 156.702C150.664 157.347 150.651 158.018 150.782 158.669C150.782 158.669 150.782 158.576 150.715 158.403C150.653 158.143 150.627 157.875 150.636 157.607C150.7 156.626 151.038 155.683 151.612 154.885C151.979 154.321 152.39 153.786 152.84 153.285C153.324 152.741 153.855 152.183 154.353 151.546C154.89 150.893 155.327 150.164 155.648 149.382C155.994 148.535 156.02 147.591 155.721 146.726C155.366 145.892 154.825 145.15 154.141 144.555C153.508 143.986 152.905 143.383 152.335 142.75C151.394 141.624 150.883 140.201 150.895 138.734C150.895 137.75 151.122 136.78 151.559 135.899C151.716 135.589 151.907 135.297 152.129 135.029Z" fill="#263238"/>
<path d="M158.217 134.71C158.217 134.71 157.991 135.022 157.693 135.64C157.284 136.517 157.077 137.474 157.088 138.441C157.089 139.884 157.599 141.281 158.529 142.385C159.047 142.995 159.697 143.553 160.335 144.17C161.035 144.776 161.586 145.535 161.948 146.387C162.25 147.276 162.224 148.244 161.875 149.116C161.543 149.91 161.096 150.65 160.547 151.313C160.036 151.977 159.498 152.508 159.02 153.046C158.568 153.539 158.153 154.065 157.779 154.619C157.216 155.4 156.872 156.317 156.783 157.275C156.774 157.629 156.806 157.983 156.876 158.33C156.846 158.243 156.821 158.155 156.803 158.065C156.744 157.806 156.719 157.54 156.73 157.275C156.794 156.293 157.13 155.348 157.699 154.546C158.071 153.985 158.484 153.453 158.934 152.953C159.412 152.409 159.943 151.851 160.447 151.214C160.982 150.561 161.417 149.831 161.735 149.05C162.082 148.203 162.11 147.26 161.815 146.394C161.456 145.564 160.916 144.825 160.235 144.23C159.571 143.613 158.954 143.055 158.423 142.424C157.481 141.296 156.971 139.871 156.982 138.401C156.986 137.421 157.213 136.453 157.646 135.573C157.807 135.267 157.998 134.978 158.217 134.71Z" fill="#263238"/>
<path d="M110.526 232.529C110.486 232.529 110.679 227.503 110.958 221.31C111.237 215.116 111.489 210.097 111.522 210.104C111.555 210.111 111.369 215.123 111.097 221.316C110.825 227.51 110.559 232.529 110.526 232.529Z" fill="#EB996E"/>
<path d="M98.982 185.163C97.7148 183.945 96.5137 182.66 95.384 181.313C96.6512 182.531 97.8522 183.817 98.982 185.163Z" fill="#EB996E"/>
<path d="M176.479 281.115L171.076 326.429H246.508L233.942 294.2L251.235 290.097C251.235 290.097 250.073 286.851 248.958 286.778C247.843 286.705 176.479 281.115 176.479 281.115Z" fill="#455A64"/>
<path d="M137.751 194.49C137.751 194.49 167.006 175.544 174.7 172.962C179.433 171.375 193.646 171.123 193.646 171.123L167.006 216.65L151.864 224.018L137.751 194.49Z" fill="#00E8FC"/>
<path d="M284.401 226.328C275.465 204.753 261.007 180.377 256.725 176.201C252.443 172.026 226.188 168.653 226.188 168.653L191.761 172.391L164.158 210.23L176.247 269.239L175.835 270.023C174.932 271.763 174.516 273.716 174.633 275.674C174.75 277.632 175.395 279.521 176.499 281.142L248.965 286.811L249.058 230.935L284.401 226.328Z" fill="#00E8FC"/>
<path d="M239.053 257.954C238.95 258.123 238.832 258.283 238.701 258.432C238.449 258.731 238.111 259.195 237.606 259.76C236.226 261.336 234.728 262.805 233.125 264.154C227.819 268.643 221.525 271.811 214.759 273.398C207.992 274.986 200.946 274.949 194.197 273.289C192.16 272.792 190.163 272.144 188.223 271.35C187.559 271.078 187.014 270.813 186.656 270.687C186.472 270.61 186.294 270.519 186.125 270.414C186.317 270.47 186.506 270.539 186.689 270.62C187.054 270.76 187.572 271.005 188.269 271.251C195.69 274.132 203.745 274.978 211.602 273.701C219.46 272.424 226.833 269.071 232.959 263.988C234.57 262.663 236.087 261.228 237.5 259.693C238.018 259.162 238.37 258.711 238.642 258.425C238.767 258.259 238.905 258.101 239.053 257.954Z" fill="#263238"/>
<path d="M249.038 228.831C248.977 228.656 248.932 228.476 248.905 228.293L248.586 226.753C248.314 225.372 247.922 223.434 247.471 221.064C246.561 216.224 245.313 209.592 243.939 202.27C243.767 201.354 243.601 200.445 243.435 199.548C243.269 198.652 243.063 197.776 242.97 196.893C242.741 195.204 242.679 193.496 242.784 191.795C242.893 190.258 243.126 188.733 243.481 187.234C243.816 185.935 244.244 184.661 244.762 183.424C245.516 181.634 246.49 179.946 247.663 178.398C248.062 177.834 248.433 177.449 248.659 177.17C248.767 177.021 248.894 176.887 249.038 176.772C249.038 176.772 248.931 176.925 248.712 177.217C248.493 177.509 248.148 177.881 247.776 178.478C246.65 180.041 245.714 181.732 244.988 183.517C244.487 184.746 244.077 186.011 243.76 187.301C243.417 188.785 243.195 190.294 243.096 191.815C243.001 193.495 243.07 195.18 243.302 196.847C243.395 197.723 243.614 198.586 243.767 199.502C243.919 200.418 244.099 201.301 244.271 202.224C245.599 209.526 246.82 216.165 247.703 221.037C248.128 223.42 248.467 225.365 248.706 226.746L248.965 228.3C249.003 228.474 249.028 228.652 249.038 228.831Z" fill="#263238"/>
<path d="M167.717 227.563C167.606 227.248 167.524 226.923 167.471 226.594C167.338 225.897 167.159 224.994 166.94 223.938C166.508 221.681 165.931 218.548 165.313 215.089C164.696 211.631 164.158 208.491 163.787 206.22C163.614 205.125 163.468 204.229 163.362 203.525C163.298 203.197 163.26 202.864 163.249 202.529C163.36 202.844 163.443 203.169 163.495 203.499C163.627 204.162 163.807 205.092 164.026 206.154C164.457 208.418 165.035 211.551 165.652 215.01C166.269 218.468 166.807 221.602 167.179 223.879C167.351 224.967 167.498 225.87 167.604 226.574C167.667 226.9 167.705 227.231 167.717 227.563Z" fill="#263238"/>
<path d="M251.527 196.555C251.719 195.27 252.024 194.004 252.437 192.771C252.743 191.509 253.161 190.276 253.685 189.087C253.488 190.372 253.182 191.638 252.769 192.871C252.467 194.134 252.052 195.367 251.527 196.555Z" fill="#FAFAFA"/>
<path d="M255.411 209.871C254.39 209.413 253.42 208.85 252.516 208.192C251.55 207.619 250.642 206.952 249.808 206.2C251.795 207.226 253.672 208.452 255.411 209.858V209.871Z" fill="#FAFAFA"/>
<path d="M262.739 204.727C262.584 203.579 262.611 202.414 262.819 201.275C262.914 200.12 263.184 198.988 263.622 197.916C263.722 197.916 263.403 199.442 263.164 201.321C262.925 203.2 262.839 204.727 262.739 204.727Z" fill="#FAFAFA"/>
<path d="M264.206 217.605C263.753 216.6 263.362 215.567 263.038 214.512C262.598 213.497 262.219 212.458 261.903 211.398C262.536 212.317 263.026 213.327 263.357 214.392C263.796 215.416 264.082 216.499 264.206 217.605Z" fill="#FAFAFA"/>
<path d="M258.524 225.572C256.712 224.22 255.039 222.69 253.532 221.005C255.348 222.352 257.021 223.883 258.524 225.572Z" fill="#FAFAFA"/>
<path d="M275.923 216.278C275.996 216.351 274.954 217.506 273.932 219.112C272.909 220.719 272.232 222.133 272.139 222.093C272.435 220.95 272.944 219.874 273.64 218.92C274.232 217.906 275.006 217.011 275.923 216.278Z" fill="#FAFAFA"/>
<path d="M256.951 183.61C256.233 183.196 255.578 182.682 255.006 182.083C254.353 181.57 253.775 180.969 253.286 180.297C254.003 180.718 254.659 181.234 255.238 181.831C255.888 182.342 256.465 182.941 256.951 183.61Z" fill="#FAFAFA"/>
<path d="M235.548 184.128C233.952 185.333 232.223 186.353 230.397 187.168C231.157 186.518 231.99 185.959 232.88 185.502C233.714 184.943 234.609 184.482 235.548 184.128Z" fill="#FAFAFA"/>
<path d="M231.804 202.868C231.102 202.174 230.483 201.401 229.959 200.565C229.342 199.795 228.818 198.955 228.399 198.062C229.719 199.524 230.862 201.138 231.804 202.868Z" fill="#FAFAFA"/>
<path d="M239.91 208.975C239.148 211.013 237.918 212.844 236.318 214.319C236.245 214.246 237.161 213.138 238.144 211.664C239.126 210.19 239.817 208.922 239.91 208.975Z" fill="#FAFAFA"/>
<path d="M220.213 210.342C220.114 210.376 219.55 208.888 218.64 207.182C217.731 205.476 216.795 204.188 216.874 204.122C218.497 205.876 219.64 208.018 220.193 210.342H220.213Z" fill="#FAFAFA"/>
<path d="M224.323 223.089C224.69 222.004 225.166 220.959 225.743 219.969C226.212 218.923 226.789 217.929 227.463 217.001C227.095 218.088 226.621 219.135 226.049 220.128C225.575 221.171 224.997 222.163 224.323 223.089Z" fill="#FAFAFA"/>
<path d="M238.071 232.648C237.684 231.469 237.405 230.258 237.234 229.03C236.958 227.824 236.794 226.595 236.743 225.359C237.131 226.535 237.411 227.744 237.58 228.97C237.856 230.178 238.021 231.409 238.071 232.648Z" fill="#FAFAFA"/>
<path d="M213.104 225.645C212.254 224.961 211.453 224.218 210.707 223.421C209.88 222.706 209.1 221.939 208.37 221.124C209.324 221.677 210.191 222.366 210.946 223.169C211.778 223.889 212.504 224.722 213.104 225.645Z" fill="#FAFAFA"/>
<path d="M202.031 207.189C200.537 208.839 198.875 210.327 197.072 211.631C198.566 209.981 200.228 208.493 202.031 207.189Z" fill="#FAFAFA"/>
<path d="M197.676 201.813C196.939 200.997 196.289 200.107 195.737 199.157C195.093 198.26 194.541 197.299 194.091 196.29C195.477 198.009 196.678 199.869 197.676 201.839V201.813Z" fill="#FAFAFA"/>
<path d="M180.788 211.08C179.896 210.083 179.089 209.013 178.378 207.88C177.575 206.815 176.866 205.683 176.26 204.495C177.152 205.487 177.956 206.556 178.663 207.688C179.471 208.753 180.182 209.888 180.788 211.08Z" fill="#FAFAFA"/>
<path d="M185.786 222.159C185.786 222.259 183.609 222.292 180.934 222.432C178.258 222.571 176.094 222.744 176.081 222.644C176.535 222.499 177.006 222.41 177.482 222.379C178.358 222.266 179.573 222.153 180.914 222.086C182.255 222.02 183.476 222.013 184.359 222.033C184.838 222.014 185.318 222.056 185.786 222.159Z" fill="#FAFAFA"/>
<path d="M187.014 190.022C187.107 190.022 186.729 191.689 186.384 193.733C186.039 195.778 185.853 197.458 185.753 197.451C185.719 194.919 186.146 192.401 187.014 190.022Z" fill="#FAFAFA"/>
<path d="M180.29 180.284C181.038 179.095 181.882 177.97 182.812 176.918C183.654 175.792 184.586 174.738 185.601 173.765C184.852 174.953 184.009 176.079 183.078 177.13C182.237 178.256 181.304 179.311 180.29 180.284Z" fill="#FAFAFA"/>
<path d="M173.545 189.365C173.472 189.432 171.905 187.838 169.834 186.046C167.763 184.254 165.997 182.859 166.057 182.78C166.504 182.984 166.922 183.247 167.298 183.563C168.035 184.094 169.024 184.891 170.067 185.787C171.109 186.683 171.992 187.593 172.616 188.257C172.973 188.583 173.286 188.956 173.545 189.365Z" fill="#FAFAFA"/>
<path d="M162.32 192.525C162.366 192.618 160.394 193.674 158.21 195.333C156.026 196.993 154.473 198.6 154.393 198.527C154.656 198.108 154.975 197.728 155.342 197.398C156.169 196.553 157.056 195.77 157.998 195.055C158.942 194.34 159.939 193.696 160.979 193.129C161.394 192.865 161.846 192.662 162.32 192.525Z" fill="#FAFAFA"/>
<path d="M147.257 201.846C147.164 201.846 147.177 200.047 147.091 197.829C147.005 195.612 146.859 193.846 146.958 193.846C147.275 195.15 147.435 196.487 147.436 197.829C147.543 199.17 147.483 200.519 147.257 201.846Z" fill="#FAFAFA"/>
<path d="M158.363 211.671C156.226 210.143 154.226 208.43 152.388 206.553C153.487 207.271 154.52 208.084 155.475 208.982C156.519 209.787 157.486 210.687 158.363 211.671Z" fill="#FAFAFA"/>
<path d="M175.922 197.597C174.679 198.043 173.399 198.381 172.098 198.606C170.82 198.946 169.513 199.168 168.194 199.27C169.44 198.824 170.721 198.486 172.025 198.261C173.302 197.925 174.606 197.703 175.922 197.597Z" fill="#FAFAFA"/>
<path d="M210.355 202.151C209.761 201.774 209.232 201.303 208.789 200.757C208.258 200.288 207.81 199.733 207.461 199.117C208.054 199.498 208.583 199.971 209.028 200.518C209.556 200.986 210.005 201.538 210.355 202.151Z" fill="#FAFAFA"/>
<path d="M225.803 193.183C225.225 193.937 224.556 194.617 223.812 195.207C223.139 195.884 222.388 196.476 221.574 196.973C222.829 195.541 224.253 194.269 225.816 193.183H225.803Z" fill="#FAFAFA"/>
<path d="M239.014 196.84C238.921 196.84 239.306 195.313 239.677 193.434C240.049 191.556 240.169 190.009 240.268 190.016C240.365 191.181 240.28 192.355 240.016 193.494C239.855 194.654 239.517 195.783 239.014 196.84Z" fill="#FAFAFA"/>
<path d="M171.142 218.196C170.722 217.732 170.391 217.194 170.166 216.609C169.842 216.074 169.617 215.485 169.502 214.87C169.93 215.332 170.268 215.87 170.498 216.457C170.814 216.994 171.032 217.583 171.142 218.196Z" fill="#FAFAFA"/>
<path d="M194.928 219.125C194.503 218.441 194.175 217.702 193.952 216.928C193.62 216.192 193.396 215.412 193.288 214.611C193.713 215.294 194.04 216.034 194.257 216.809C194.593 217.544 194.819 218.325 194.928 219.125Z" fill="#FAFAFA"/>
<path d="M207.899 212.593C207.826 212.527 208.211 211.969 208.762 211.345C209.313 210.721 209.811 210.263 209.884 210.323C209.957 210.382 209.565 210.947 209.021 211.571C208.477 212.195 208.005 212.653 207.899 212.593Z" fill="#FAFAFA"/>
<path d="M181.246 254.17C180.578 253.25 180.075 252.222 179.759 251.13C179.339 250.072 179.114 248.948 179.095 247.811C179.194 247.811 179.5 249.271 180.104 251.017C180.708 252.763 181.339 254.117 181.246 254.17Z" fill="#FAFAFA"/>
<path d="M191.369 254.927C191.535 253.943 191.811 252.981 192.193 252.059C192.463 251.101 192.847 250.178 193.334 249.311C193.17 250.292 192.896 251.251 192.518 252.172C192.242 253.131 191.857 254.056 191.369 254.927Z" fill="#FAFAFA"/>
<path d="M188.415 266.431C187.777 265.591 187.234 264.682 186.795 263.722C186.25 262.813 185.805 261.847 185.468 260.841C186.102 261.685 186.643 262.596 187.081 263.556C187.625 264.465 188.072 265.429 188.415 266.431Z" fill="#FAFAFA"/>
<path d="M207.169 263.125C206.021 262.949 204.904 262.614 203.85 262.13C202.758 261.752 201.727 261.218 200.789 260.543C201.877 260.905 202.943 261.328 203.982 261.811C205.07 262.183 206.135 262.622 207.169 263.125Z" fill="#FAFAFA"/>
<path d="M201.101 256.301C201.055 256.215 202.23 255.451 203.557 254.363C204.885 253.274 205.881 252.285 205.954 252.371C204.693 254.072 203.024 255.428 201.101 256.314V256.301Z" fill="#FAFAFA"/>
<path d="M216.728 261.154C216.668 261.233 215.46 260.49 213.874 259.72C212.287 258.95 210.933 258.518 210.959 258.425C213.092 258.801 215.085 259.743 216.728 261.154Z" fill="#FAFAFA"/>
<path d="M220.061 267.393C219.994 267.32 220.904 266.391 221.906 265.136C222.909 263.882 223.612 262.793 223.699 262.846C223.35 263.77 222.832 264.621 222.172 265.355C221.602 266.161 220.886 266.853 220.061 267.393Z" fill="#FAFAFA"/>
<path d="M185.972 279.449C184.868 278.921 183.817 278.29 182.832 277.563C181.78 276.936 180.791 276.209 179.878 275.393C180.982 275.92 182.034 276.551 183.018 277.278C184.07 277.905 185.06 278.632 185.972 279.449Z" fill="#FAFAFA"/>
<path d="M198.672 276.316C198.712 276.409 197.344 277.013 195.797 278.022C194.25 279.031 193.142 280.014 193.069 279.96C194.543 278.227 196.49 276.961 198.672 276.316Z" fill="#FAFAFA"/>
<path d="M210.03 281.335C209.47 280.775 208.989 280.141 208.603 279.45C208.124 278.819 207.741 278.121 207.468 277.378C208.513 278.573 209.377 279.915 210.03 281.361V281.335Z" fill="#FAFAFA"/>
<path d="M223.719 276.813C223.758 276.906 222.471 277.517 221.01 278.466C219.55 279.415 218.454 280.325 218.355 280.252C219.034 279.415 219.862 278.71 220.798 278.174C221.676 277.539 222.667 277.077 223.719 276.813Z" fill="#FAFAFA"/>
<path d="M230.045 270.872C229.952 270.919 229.56 270.208 228.817 269.631C228.073 269.053 227.337 268.761 227.363 268.668C227.987 268.659 228.588 268.898 229.036 269.332C229.563 269.692 229.926 270.245 230.045 270.872Z" fill="#FAFAFA"/>
<path d="M237.214 277.71C236.519 278.261 235.756 278.721 234.944 279.078C234.181 279.531 233.365 279.888 232.514 280.14C233.207 279.586 233.971 279.126 234.785 278.773C235.545 278.314 236.362 277.957 237.214 277.71Z" fill="#FAFAFA"/>
<path d="M243.674 281.335C243.574 281.335 243.939 279.814 244.178 277.942C244.417 276.07 244.444 274.523 244.55 274.523C244.732 275.67 244.721 276.839 244.517 277.982C244.428 279.139 244.143 280.273 243.674 281.335Z" fill="#FAFAFA"/>
<path d="M242.651 269.81C242.592 269.897 241.251 268.987 239.412 268.263C237.573 267.54 235.98 267.281 235.993 267.175C237.215 267.182 238.423 267.444 239.538 267.945C240.697 268.338 241.758 268.974 242.651 269.81Z" fill="#FAFAFA"/>
<path d="M228.259 235.058C226.269 234.038 224.39 232.817 222.65 231.413C224.637 232.436 226.517 233.657 228.259 235.058Z" fill="#FAFAFA"/>
<g opacity="0.3">
<path opacity="0.3" d="M194.589 273.435C194.377 273.021 194.312 272.547 194.405 272.091C194.498 271.635 194.743 271.224 195.1 270.926C195.837 270.35 196.725 270.002 197.656 269.923C202.409 269.18 207.501 270.468 211.955 268.655C214.943 267.434 217.266 264.944 219.019 262.249C220.771 259.554 222.159 256.606 223.891 253.885C225.445 251.435 227.429 249.098 230.138 248.049C232.846 247.001 236.371 247.671 237.839 250.174C239.306 252.676 238.323 255.75 236.949 258.22C233.066 265.19 226.069 270.122 218.441 272.472C210.813 274.822 202.602 274.763 194.728 273.369" fill="black"/>
</g>
<path d="M288.722 252.902L281.314 226.468L250.817 230.411L254.388 244.431L208.775 232.263L198.712 245.62L267.951 278.314C271.124 279.667 274.636 280.019 278.015 279.324C281.394 278.629 284.481 276.92 286.864 274.424C291.112 269.936 290.601 258.804 288.722 252.902Z" fill="#FFBE9D"/>
<path d="M162.665 227.563C161.642 227.291 160.408 227.072 159.651 227.802C159.352 228.154 159.176 228.594 159.15 229.056C159.123 229.517 159.248 229.974 159.505 230.358C159.976 231.148 160.335 231.261 161.583 231.686L173.724 234.441L178.371 230.803L162.665 227.563Z" fill="#EB996E"/>
<path d="M200.564 246.257C185.727 242.626 171.959 237.826 157.301 235.038C156.571 234.898 155.747 234.706 155.362 234.062C154.838 233.186 155.515 231.997 156.451 231.599C157.429 231.297 158.47 231.262 159.465 231.5C167.308 232.59 175.28 232.321 183.031 230.703C188.057 229.647 192.989 228.048 198.061 227.384C203.133 226.72 204.5 229.375 208.775 232.23" fill="#FFBE9D"/>
<path d="M208.775 232.264C207.541 230.098 205.746 228.306 203.579 227.075C201.412 225.843 198.953 225.219 196.461 225.267C193.427 225.366 190.526 226.468 187.599 227.258C184.671 228.048 181.471 228.54 178.643 227.424C177.561 226.999 176.552 226.342 175.397 226.183C174.242 226.024 172.861 226.588 172.656 227.73C172.496 228.593 173.054 229.416 173.658 230.06C175.782 232.304 182.547 234.8 187.878 234.534" fill="#FFBE9D"/>
<path d="M187.878 234.54C187.878 234.487 187.061 234.54 185.614 234.394C183.578 234.179 181.574 233.734 179.639 233.066C178.295 232.62 176.999 232.042 175.769 231.34C175.09 230.966 174.465 230.501 173.91 229.959C173.614 229.707 173.373 229.398 173.199 229.05C173.026 228.702 172.924 228.323 172.901 227.935C172.972 227.547 173.169 227.194 173.46 226.929C173.752 226.664 174.122 226.502 174.514 226.468C175.388 226.367 176.271 226.546 177.037 226.979C177.903 227.428 178.813 227.786 179.752 228.048C180.734 228.282 181.744 228.38 182.753 228.34C186.862 228.2 190.4 226.494 193.759 225.85C195.337 225.493 196.965 225.408 198.572 225.598C199.969 225.784 201.33 226.181 202.608 226.773C204.47 227.637 206.124 228.894 207.454 230.457C208.384 231.573 208.782 232.296 208.782 232.27C208.721 232.081 208.634 231.903 208.523 231.739C208.253 231.241 207.938 230.77 207.581 230.331C206.288 228.68 204.632 227.349 202.741 226.441C201.434 225.807 200.037 225.379 198.599 225.173C196.946 224.956 195.269 225.026 193.64 225.379C190.201 226.043 186.669 227.689 182.713 227.822C181.749 227.857 180.784 227.763 179.845 227.543C178.938 227.291 178.059 226.946 177.223 226.514C176.359 226.045 175.37 225.859 174.395 225.983C173.906 226.066 173.448 226.277 173.067 226.594C172.874 226.76 172.716 226.963 172.602 227.191C172.488 227.419 172.42 227.667 172.403 227.921C172.423 228.377 172.536 228.824 172.736 229.234C172.936 229.644 173.218 230.009 173.565 230.305C174.159 230.873 174.829 231.356 175.557 231.739C176.822 232.442 178.157 233.014 179.54 233.445C181.519 234.091 183.57 234.49 185.647 234.633C186.211 234.667 186.776 234.667 187.34 234.633C187.522 234.624 187.703 234.593 187.878 234.54Z" fill="#EB996E"/>
<path d="M267.97 248.647C267.97 248.647 267.917 248.647 267.818 248.601L267.386 248.448L265.82 247.877C264.492 247.399 262.646 246.768 260.595 246.125C258.544 245.481 256.665 244.95 255.284 244.591L253.671 244.173L253.226 244.06C253.127 244.06 253.074 244.013 253.08 244.007H253.233L253.685 244.093C254.07 244.173 254.627 244.299 255.311 244.465C256.685 244.81 258.564 245.321 260.622 245.965C262.68 246.609 264.518 247.26 265.84 247.758C266.503 248.01 267.028 248.222 267.393 248.375L267.811 248.554L267.97 248.647Z" fill="#EB996E"/>
<path d="M210.661 194.125C214.841 193.945 218.791 192.158 221.685 189.136C224.579 186.114 226.195 182.091 226.195 177.907V158.655L227.257 97.1435L225.883 93.6782L193.487 83.455C183.529 82.6783 176.838 96.3734 176.486 106.358C176.094 117.457 176.054 131.02 177.595 139.245C180.688 155.788 193.487 157.553 193.487 157.553L193.739 178.133C193.769 180.303 194.234 182.446 195.107 184.434C195.98 186.421 197.242 188.214 198.82 189.705C200.398 191.196 202.259 192.355 204.293 193.115C206.326 193.874 208.492 194.217 210.661 194.125Z" fill="#FFBE9D"/>
<path d="M180.788 117.146C180.798 117.702 181.025 118.233 181.421 118.625C181.816 119.017 182.349 119.239 182.905 119.244C183.177 119.256 183.449 119.214 183.705 119.12C183.961 119.027 184.195 118.883 184.395 118.698C184.595 118.512 184.755 118.289 184.868 118.041C184.98 117.793 185.042 117.524 185.05 117.252C185.037 116.697 184.81 116.168 184.414 115.777C184.019 115.387 183.487 115.166 182.932 115.161C182.66 115.147 182.388 115.187 182.132 115.28C181.875 115.372 181.64 115.516 181.441 115.701C181.241 115.886 181.08 116.109 180.968 116.357C180.856 116.605 180.794 116.874 180.788 117.146Z" fill="#263238"/>
<path d="M179.613 113.222C179.885 113.495 181.471 112.253 183.762 112.193C186.052 112.134 187.745 113.236 188.01 112.95C188.13 112.824 187.844 112.326 187.094 111.815C186.085 111.153 184.895 110.822 183.689 110.866C182.487 110.888 181.323 111.295 180.37 112.027C179.706 112.592 179.46 113.103 179.613 113.222Z" fill="#263238"/>
<path d="M203.02 117.146C203.03 117.701 203.256 118.231 203.65 118.622C204.044 119.014 204.575 119.237 205.131 119.244C205.403 119.258 205.676 119.217 205.933 119.124C206.189 119.031 206.425 118.887 206.625 118.702C206.825 118.516 206.985 118.292 207.097 118.043C207.209 117.794 207.269 117.525 207.275 117.252C207.266 116.697 207.041 116.167 206.646 115.776C206.251 115.385 205.719 115.164 205.164 115.161C204.892 115.147 204.62 115.187 204.364 115.28C204.108 115.372 203.873 115.516 203.673 115.701C203.473 115.886 203.312 116.109 203.2 116.357C203.088 116.605 203.027 116.874 203.02 117.146Z" fill="#263238"/>
<path d="M202.17 113.03C202.442 113.295 204.029 112.061 206.319 112.001C208.609 111.941 210.302 113.043 210.568 112.758C210.681 112.632 210.402 112.134 209.652 111.623C208.642 110.962 207.452 110.63 206.246 110.673C205.044 110.696 203.881 111.103 202.927 111.835C202.263 112.399 202.031 112.904 202.17 113.03Z" fill="#263238"/>
<path d="M194.317 130.263C194.317 130.137 192.89 129.925 190.573 129.693C189.989 129.653 189.431 129.553 189.318 129.155C189.251 128.551 189.371 127.942 189.663 127.409C190.174 125.975 190.705 124.475 191.27 122.901C193.5 116.482 195.1 111.218 194.841 111.125C194.582 111.032 192.558 116.17 190.334 122.583L188.794 127.117C188.594 127.781 188.229 128.551 188.555 129.42C188.644 129.626 188.78 129.807 188.952 129.951C189.124 130.095 189.326 130.197 189.544 130.25C189.869 130.332 190.204 130.37 190.54 130.363C192.87 130.423 194.31 130.396 194.317 130.263Z" fill="#263238"/>
<path d="M193.48 157.448C201.309 157.35 208.957 155.082 215.573 150.896C215.573 150.896 210.488 162.46 193.812 161.364L193.48 157.448Z" fill="#EB996E"/>
<path d="M201.327 104.088C201.573 104.705 203.856 104.346 206.552 104.599C209.247 104.851 211.451 105.521 211.796 104.951C211.942 104.678 211.55 104.101 210.654 103.523C209.464 102.815 208.128 102.387 206.748 102.272C205.367 102.157 203.979 102.358 202.688 102.859C201.705 103.258 201.227 103.762 201.327 104.088Z" fill="#263238"/>
<path d="M180.277 106.557C180.695 107.068 182.268 106.484 184.16 106.405C186.052 106.325 187.678 106.663 188.03 106.106C188.183 105.834 187.917 105.322 187.2 104.851C186.248 104.266 185.135 103.997 184.021 104.081C182.905 104.133 181.834 104.529 180.954 105.216C180.296 105.767 180.124 106.312 180.277 106.557Z" fill="#263238"/>
<path d="M187.771 84.5909C188.542 89.7923 190.602 94.7179 193.766 98.918C196.929 103.118 201.094 106.459 205.881 108.635C205.593 107.308 205.31 105.98 205.031 104.652C209.134 111.437 217.843 117.119 223.446 119.416C225.179 120.127 227.396 119.489 228.969 118.48C231.173 117.073 231.306 113.913 230.842 111.337C229.401 103.278 224.621 96.0688 218.394 90.758C212.168 85.4473 204.573 81.9023 196.72 79.5257C194.642 78.8951 193.507 78.4636 191.449 79.1606C189.391 79.8577 186.696 82.201 187.692 84.1262" fill="#263238"/>
<path d="M220.818 107.208C225.571 124.235 219.284 143.162 220.904 160.767C221.262 164.69 222.69 169.231 225.996 171.388C227.629 172.451 227.987 171.78 229.866 172.152C234.665 173.081 239.199 171.07 243.992 171.999C248.321 172.842 255.205 175.318 257.933 171.846C260.662 168.375 257.515 164.292 254.846 160.893C252.178 157.494 248.593 154.587 247.278 150.464C245.858 146.036 247.391 141.283 248.055 136.676C250.325 120.949 244.736 105.017 235.442 92.1186C232.202 87.6244 227.317 83.3692 222.922 79.9902C218.527 76.6112 208.589 73.7633 203.053 74.0156C197.517 74.2678 188.296 78.6625 186.039 84.8695" fill="#263238"/>
<path d="M202.436 97.4887C202.402 97.5485 202.768 97.7941 203.471 98.199L204.726 98.9293L203.657 97.907C201.056 95.485 198.833 92.6855 197.065 89.6022C193.746 83.8865 193.241 78.4098 192.976 78.4762C192.89 78.4762 192.89 79.8437 193.328 82.0012C193.921 84.7986 194.946 87.4863 196.368 89.9674C198.135 93.1502 200.54 95.9344 203.431 98.1459L203.624 97.8538C202.874 97.575 202.462 97.4489 202.436 97.4887Z" fill="#455A64"/>
<path d="M232.568 168.335C232.6 167.97 232.6 167.604 232.568 167.239C232.568 166.522 232.568 165.467 232.601 164.106C232.821 160.275 233.386 156.471 234.287 152.741C235.309 147.988 237.002 142.418 238.018 136.005C238.545 132.645 238.707 129.237 238.502 125.842C238.324 122.154 237.4 118.541 235.787 115.22C234.108 111.925 231.649 109.09 228.624 106.962C225.77 104.845 222.789 103.211 220.067 101.512C215.222 98.5311 210.762 94.9636 206.79 90.8905C204.127 88.133 201.685 85.1697 199.488 82.0282C198.711 80.9129 198.121 80.0366 197.729 79.4325C197.54 79.1132 197.318 78.8149 197.065 78.543C197.204 78.8826 197.373 79.2091 197.57 79.5188C197.908 80.1827 198.466 81.0589 199.203 82.1742C201.323 85.4047 203.724 88.4414 206.379 91.249C210.322 95.4258 214.784 99.0802 219.656 102.123C222.391 103.849 225.352 105.495 228.133 107.573C231.05 109.629 233.424 112.363 235.05 115.539C236.612 118.758 237.515 122.256 237.706 125.829C237.913 129.169 237.769 132.523 237.274 135.833C236.312 142.166 234.672 147.782 233.716 152.555C232.856 156.324 232.373 160.169 232.276 164.033C232.259 165.083 232.298 166.134 232.395 167.18C232.407 167.57 232.464 167.958 232.568 168.335Z" fill="#455A64"/>
<path d="M176.473 92.5037C175.882 96.7978 175.536 101.122 175.437 105.455C178.796 102.747 182.188 99.9786 184.731 96.4801C187.273 92.9816 188.86 88.6069 188.196 84.3384C185.764 85.0538 183.562 86.3975 181.814 88.2342C180.066 90.0709 178.833 92.3357 178.238 94.8006" fill="#263238"/>
<path d="M193.593 138.043C194.164 136.928 194.317 136.642 195.286 136.111C196.021 135.926 196.779 135.85 197.537 135.886C198.273 135.925 198.765 136.656 199.037 137.339C199.482 138.328 199.546 139.446 199.216 140.479C198.831 141.482 195.352 142.683 193.48 140.048" fill="#EB996E"/>
<path d="M196.454 141.794C196.645 141.782 196.835 141.782 197.025 141.794C197.529 141.77 198.014 141.597 198.419 141.296C198.97 140.796 199.326 140.116 199.422 139.378C199.499 138.939 199.465 138.487 199.323 138.065C199.18 137.643 198.933 137.263 198.605 136.961C197.887 136.398 196.995 136.104 196.083 136.131C195.716 136.146 195.356 136.238 195.028 136.401C194.699 136.565 194.41 136.796 194.177 137.081C193.868 137.482 193.665 137.954 193.587 138.455C193.573 138.646 193.537 138.836 193.48 139.019C193.426 138.829 193.415 138.63 193.447 138.435C193.484 137.895 193.67 137.375 193.985 136.935C194.212 136.632 194.496 136.377 194.821 136.184C195.202 135.962 195.63 135.835 196.069 135.813C196.545 135.795 197.021 135.855 197.477 135.992C197.967 136.127 198.42 136.37 198.804 136.702C199.208 137.051 199.497 137.514 199.634 138.03C199.77 138.493 199.795 138.982 199.707 139.457C199.624 139.877 199.479 140.282 199.276 140.659C199.065 141.074 198.737 141.417 198.332 141.647C197.927 141.876 197.463 141.98 196.999 141.947C196.808 141.941 196.621 141.888 196.454 141.794Z" fill="#263238"/>
<path d="M204.348 124.859C204.407 124.932 204.188 125.184 203.803 125.231C203.418 125.277 203.139 125.072 203.192 124.992C203.246 124.912 203.485 124.919 203.763 124.886C204.042 124.853 204.288 124.779 204.348 124.859Z" fill="#EB996E"/>
<path d="M208.005 124.668C207.912 124.668 207.786 124.488 207.733 124.229C207.68 123.97 207.7 123.738 207.793 123.718C207.886 123.698 208.012 123.891 208.072 124.156C208.131 124.422 208.125 124.668 208.005 124.668Z" fill="#EB996E"/>
<path d="M212.447 123.193C212.447 123.286 212.194 123.312 211.935 123.259C211.676 123.206 211.477 123.073 211.497 122.98C211.517 122.887 211.749 122.861 212.008 122.921C212.267 122.98 212.466 123.1 212.447 123.193Z" fill="#EB996E"/>
<path d="M206.246 128.55C206.153 128.55 206.074 128.338 206.074 128.079C206.074 127.82 206.153 127.607 206.246 127.607C206.339 127.607 206.419 127.813 206.419 128.079C206.419 128.344 206.339 128.55 206.246 128.55Z" fill="#EB996E"/>
<path d="M210.236 126.765C210.143 126.765 210.063 126.718 210.063 126.658C210.063 126.599 210.143 126.552 210.236 126.552C210.329 126.552 210.408 126.599 210.408 126.658C210.408 126.718 210.335 126.765 210.236 126.765Z" fill="#EB996E"/>
<path d="M181.664 125.503C181.664 125.596 181.332 125.663 181 125.503C180.668 125.344 180.462 125.045 180.535 124.985C180.608 124.926 180.847 125.058 181.14 125.191C181.432 125.324 181.671 125.404 181.664 125.503Z" fill="#EB996E"/>
<path d="M184.631 124.879C184.582 124.861 184.542 124.825 184.52 124.778C184.498 124.731 184.495 124.676 184.512 124.627C184.545 124.514 184.638 124.435 184.731 124.461C184.78 124.479 184.82 124.516 184.842 124.563C184.865 124.61 184.867 124.664 184.85 124.713C184.847 124.739 184.839 124.763 184.826 124.785C184.813 124.808 184.796 124.827 184.776 124.842C184.755 124.858 184.732 124.869 184.707 124.875C184.682 124.882 184.657 124.883 184.631 124.879Z" fill="#EB996E"/>
<path d="M183.045 129.181C182.952 129.181 182.852 129.035 182.826 128.836C182.799 128.637 182.826 128.457 182.945 128.444C183.065 128.431 183.138 128.584 183.171 128.789C183.204 128.995 183.144 129.168 183.045 129.181Z" fill="#EB996E"/>
<path d="M179.141 128.969C179.062 128.916 179.095 128.736 179.208 128.557C179.321 128.378 179.487 128.285 179.566 128.338C179.646 128.391 179.613 128.577 179.5 128.75C179.387 128.922 179.221 129.022 179.141 128.969Z" fill="#EB996E"/>
</svg>
